# xmcd CD database file
#
# Track frame offsets:
#	150
#	18106
#	29442
#	53702
#	69691
#	87059
#	100556
#
# Disc length: 1593 seconds
#
# Revision: 0
# Processed by: cddbd v1.5.2PL0 Copyright (c) Steve Scherf et al.
# Submitted via: CDex 1.79
#
DISCID=49063707
DTITLE=Straw Man - Elephant Graveyard
DYEAR=2017
DGENRE=Blues
TTITLE0=Elephant Graveyard
TTITLE1=Goin' Down South (R.L. Burniside)
TTITLE2=A Night In The Village
TTITLE3=Ponctured Rose
TTITLE4=A Try
TTITLE5=They'll Bury You
TTITLE6=Leavin' Blues(Taste)
EXTD=YEAR: 2017
EXTT0=
EXTT1=
EXTT2=
EXTT3=
EXTT4=
EXTT5=
EXTT6=
PLAYORDER=
